<svg width="110" height="55" viewBox="0 0 110 55" fill="none" xmlns="http://www.w3.org/2000/svg">
<rect width="42" height="43" fill="#FAAC64"/>
<path d="M15.316 25.576C16.504 25.015 17.857 24.751 19.276 24.751C20.893 24.751 23.599 24.784 25.216 26.5C26.701 25.279 28.615 24.751 30.628 24.751C33.103 24.751 37.987 24.784 37.987 30.691V38.908C38.02 42.241 39.967 41.878 39.967 41.878V43H30.628V41.911C30.628 41.911 32.542 42.076 32.542 39.403C32.542 39.238 32.575 28.678 32.575 28.678C32.575 25.576 29.704 25.873 29.704 25.873C27.328 25.873 26.734 28.018 26.536 29.404C26.602 29.8 26.635 30.229 26.635 30.691V38.908C26.668 42.241 28.582 41.878 28.582 41.878V43H19.243V41.911C19.243 41.911 21.19 42.076 21.19 39.403C21.19 39.238 21.19 28.678 21.19 28.678C21.19 25.576 18.352 25.873 18.352 25.873C16.372 25.873 15.613 27.358 15.316 28.645L15.25 38.941C15.283 42.241 17.23 41.911 17.23 41.911V43H7.858V41.911C7.858 41.911 9.739 42.241 9.838 39.106V29.932C9.739 26.797 7.858 27.16 7.858 27.16V26.038L15.316 24.685V25.576Z" fill="white"/>
<path d="M51.5959 42.967C46.7119 42.967 42.7519 40.624 42.7519 33.859C42.7519 27.094 46.7119 24.751 51.5959 24.751C56.4469 24.751 60.4069 27.094 60.4069 33.859C60.4069 40.657 56.4469 42.967 51.5959 42.967ZM51.5959 42.076C54.0379 42.076 54.9949 39.997 54.9949 33.892C54.9949 27.82 54.0379 25.741 51.5959 25.741C49.1209 25.741 48.1639 27.853 48.1639 33.892C48.1639 39.964 49.1209 42.076 51.5959 42.076ZM71.6442 24.718C73.5252 24.718 75.9342 25.114 77.4192 26.236C77.8482 26.533 78.2112 26.368 78.2112 26.368C78.2112 26.368 78.6732 26.929 78.8052 26.995L75.0762 29.305C74.5812 28.711 74.6142 28.711 74.6142 28.711C74.6142 28.711 74.8782 28.48 74.7462 27.688C74.4492 26.269 73.3602 25.708 71.5122 25.708C69.2022 25.708 68.5422 27.16 68.5422 28.249C68.5422 32.473 79.5312 31.417 79.5312 37.291C79.5312 40.492 77.0232 43 70.5882 43C68.9382 43 66.1002 43.132 63.9882 39.997C63.6912 39.568 63.1962 39.865 63.1962 39.865C63.1962 39.865 62.8992 39.238 62.8002 39.106L66.9912 37.819C67.3212 38.512 67.2882 38.512 67.2882 38.512C67.2882 38.512 66.5952 38.743 66.9252 39.502C67.3872 40.624 68.7732 41.746 70.6542 41.746C72.9642 41.746 73.9872 40.69 73.9872 38.71C73.9872 35.179 63.6582 34.816 63.6582 29.833C63.6582 25.543 67.9152 24.784 71.6442 24.718ZM89.7985 25.576C90.9865 25.015 92.3395 24.751 93.7585 24.751C96.2005 24.751 101.118 24.784 101.118 30.691V38.908C101.151 42.241 103.065 41.878 103.065 41.878V43H93.7255V41.911C93.7255 41.911 95.6725 42.076 95.6725 39.403C95.6725 39.238 95.6725 28.678 95.6725 28.678C95.6725 25.576 92.8345 25.873 92.8345 25.873C90.8215 25.873 90.0625 27.424 89.7655 28.744L89.7325 38.941C89.7655 42.241 91.7125 41.911 91.7125 41.911V43H82.3405V41.911C82.3405 41.911 84.2215 42.241 84.3205 39.106V22.738C84.2215 19.603 82.3405 19.933 82.3405 19.933V18.811L89.7985 17.458V25.576Z" fill="black"/>
<circle cx="107" cy="40" r="3" fill="#4AC3BE"/>
</svg>
