<svg width="42" height="55" viewBox="0 0 42 55" fill="none" xmlns="http://www.w3.org/2000/svg">
<rect width="42" height="43" fill="#FAAC64"/>
<path d="M15.316 25.576C16.504 25.015 17.857 24.751 19.276 24.751C20.893 24.751 23.599 24.784 25.216 26.5C26.701 25.279 28.615 24.751 30.628 24.751C33.103 24.751 37.987 24.784 37.987 30.691V38.908C38.02 42.241 39.967 41.878 39.967 41.878V43H30.628V41.911C30.628 41.911 32.542 42.076 32.542 39.403C32.542 39.238 32.575 28.678 32.575 28.678C32.575 25.576 29.704 25.873 29.704 25.873C27.328 25.873 26.734 28.018 26.536 29.404C26.602 29.8 26.635 30.229 26.635 30.691V38.908C26.668 42.241 28.582 41.878 28.582 41.878V43H19.243V41.911C19.243 41.911 21.19 42.076 21.19 39.403C21.19 39.238 21.19 28.678 21.19 28.678C21.19 25.576 18.352 25.873 18.352 25.873C16.372 25.873 15.613 27.358 15.316 28.645L15.25 38.941C15.283 42.241 17.23 41.911 17.23 41.911V43H7.858V41.911C7.858 41.911 9.739 42.241 9.838 39.106V29.932C9.739 26.797 7.858 27.16 7.858 27.16V26.038L15.316 24.685V25.576Z" fill="white"/>
</svg>
